# xmcd
#
# Track frame offsets: 
#        150
#        23672
#        38892
#
# Disc length: 771 seconds
#
# Revision: 1
# Processed by: cddbd v1.5.2PL0 Copyright (c) Steve Scherf et al.
# Submitted via: ExactAudioCopy v1.0b6
#
DISCID=19030103
DTITLE=DMX Krew - Adrenalin Flow
DYEAR=1998
DGENRE=Electronic
TTITLE0=Adrenalin Flow (12" Edit)
TTITLE1=X-Ray
TTITLE2=Pitch II Pitch
EXTD=
EXTT0=
EXTT1=
EXTT2=
PLAYORDER=
